HIERARCHY
ROOT Hips
{
	OFFSET 0.000000 0.000000 0.000000
	CHANNELS 6 Xposition Yposition Zposition Xrotation Yrotation Zrotation
	JOINT LeftUpLeg_virtual
	{
		OFFSET 0.000000 0.000000 0.000000
		CHANNELS 3 Xrotation Yrotation Zrotation
		JOINT LeftUpLeg
		{
			OFFSET 10.205400 -3.823500 0.155100
			CHANNELS 3 Xrotation Yrotation Zrotation
			JOINT LeftLeg
			{
				OFFSET 0.708757 -12.982077 0.567790
				CHANNELS 3 Xrotation Yrotation Zrotation
				JOINT LeftFoot
				{
					OFFSET -0.708756 -10.717838 -2.184338
					CHANNELS 3 Xrotation Yrotation Zrotation
					JOINT LeftToeBase
					{
						OFFSET 0.108149 -7.191104 7.560241
						CHANNELS 3 Xrotation Yrotation Zrotation
						JOINT LeftToe_End
						{
							OFFSET 0.070230 0.081724 4.490308
							CHANNELS 3 Xrotation Yrotation Zrotation
							End Site
							{
								OFFSET 0 0 0
							}
						}
					}
				}
			}
		}
	}
	JOINT RightUpLeg_virtual
	{
		OFFSET 0.000000 0.000000 0.000000
		CHANNELS 3 Xrotation Yrotation Zrotation
		JOINT RightUpLeg
		{
			OFFSET -10.205400 -3.823500 0.005500
			CHANNELS 3 Xrotation Yrotation Zrotation
			JOINT RightLeg
			{
				OFFSET -0.708756 -12.982134 0.610632
				CHANNELS 3 Xrotation Yrotation Zrotation
				JOINT RightFoot
				{
					OFFSET 0.708754 -10.717769 -1.945823
					CHANNELS 3 Xrotation Yrotation Zrotation
					JOINT RightToeBase
					{
						OFFSET -0.108140 -7.191069 7.372968
						CHANNELS 3 Xrotation Yrotation Zrotation
						JOINT RightToe_End
						{
							OFFSET -0.070227 0.081735 4.479403
							CHANNELS 3 Xrotation Yrotation Zrotation
							End Site
							{
								OFFSET 0 0 0
							}
						}
					}
				}
			}
		}
	}
	JOINT Spine_virtual
	{
		OFFSET 0.000000 0.000000 0.000000
		CHANNELS 3 Xrotation Yrotation Zrotation
		JOINT Spine
		{
			OFFSET 0.000000 6.876099 0.125700
			CHANNELS 3 Xrotation Yrotation Zrotation
			JOINT Spine1
			{
				OFFSET 0.000000 5.730043 0.104720
				CHANNELS 3 Xrotation Yrotation Zrotation
				JOINT Spine1_split
				{
					OFFSET 0.000000 5.730043 0.104720
					CHANNELS 3 Xrotation Yrotation Zrotation
					JOINT Spine2
					{
						OFFSET 0.000000 5.730043 0.104720
						CHANNELS 3 Xrotation Yrotation Zrotation
						JOINT Neck_virtual
						{
							OFFSET 0.000000 0.000000 0.000000
							CHANNELS 3 Xrotation Yrotation Zrotation
							JOINT Neck
							{
								OFFSET 0.000000 10.314075 0.188496
								CHANNELS 3 Xrotation Yrotation Zrotation
								JOINT Head
								{
									OFFSET 0.000000 7.643700 -2.377400
									CHANNELS 3 Xrotation Yrotation Zrotation
									JOINT HeadTop_End
									{
										OFFSET 0.000000 43.788605 -13.619600
										CHANNELS 3 Xrotation Yrotation Zrotation
										End Site
										{
											OFFSET 0 0 0
										}
									}
								}
							}
						}
						JOINT LeftShoulder_virtual
						{
							OFFSET 0.000000 0.000000 0.000000
							CHANNELS 3 Xrotation Yrotation Zrotation
							JOINT LeftShoulder
							{
								OFFSET 2.196100 4.412489 0.087492
								CHANNELS 3 Xrotation Yrotation Zrotation
								JOINT LeftShoulder_split
								{
									OFFSET 2.196100 4.412489 0.087492
									CHANNELS 3 Xrotation Yrotation Zrotation
									JOINT LeftArm
									{
										OFFSET 8.771219 -2.981674 -0.026999
										CHANNELS 3 Xrotation Yrotation Zrotation
										JOINT LeftForeArm
										{
											OFFSET 8.512804 0.000000 -0.000000
											CHANNELS 3 Xrotation Yrotation Zrotation
											JOINT LeftHand
											{
												OFFSET 18.484802 0.000000 -0.000000
												CHANNELS 3 Xrotation Yrotation Zrotation
												End Site
												{
													OFFSET 0 0 0
												}
											}
										}
									}
								}
							}
						}
						JOINT RightShoulder_virtual
						{
							OFFSET 0.000000 0.000000 0.000000
							CHANNELS 3 Xrotation Yrotation Zrotation
							JOINT RightShoulder
							{
								OFFSET -2.196100 4.412496 0.070690
								CHANNELS 3 Xrotation Yrotation Zrotation
								JOINT RightShoulder_split
								{
									OFFSET -2.196100 4.412496 0.070690
									CHANNELS 3 Xrotation Yrotation Zrotation
									JOINT RightArm
									{
										OFFSET -8.771282 -2.981682 -0.094208
										CHANNELS 3 Xrotation Yrotation Zrotation
										JOINT RightForeArm
										{
											OFFSET -8.494598 0.000000 0.000000
											CHANNELS 3 Xrotation Yrotation Zrotation
											JOINT RightHand
											{
												OFFSET -18.483803 0.000000 0.000001
												CHANNELS 3 Xrotation Yrotation Zrotation
												End Site
												{
													OFFSET 0 0 0
												}
											}
										}
									}
								}
							}
						}
					}
				}
			}
		}
	}
}
MOTION
Frames: 4
Frame Time: 0.03333333
-4.914289 26.699070 -50.298729 0.000000 0.000000 0.000000 23.660779 -67.001635 23.501067 -50.835923 -23.999377 26.083521 43.892589 -20.928036 -0.465282 22.517669 -1.346846 -31.175142 -15.910128 1.074560 -8.477870 0.000000 0.000000 0.000000 23.613304 -66.001170 23.479272 -37.013512 -1.410185 -33.627890 51.715826 14.397919 1.676456 -19.210715 -13.167986 28.210916 1.873555 10.196865 -2.429388 0.000000 0.000000 0.000000 16.954085 -55.774396 16.270233 0.444576 12.716682 -0.727132 3.382892 13.472937 2.863622 0.101552 -1.790650 0.481914 0.000000 0.000000 0.000000 8.617913 16.675705 2.947875 -7.721053 27.712950 0.716517 -46.125114 -24.594142 -77.259760 0.000000 0.000000 0.000000 8.185154 11.947220 5.434255 -1.350792 -11.534088 3.920998 -9.594755 1.085073 1.420869 -50.396684 -8.384661 -63.972699 149.963101 -72.433849 150.751714 0.000000 0.000000 0.000000 2.135167 10.933172 6.463367 -11.475203 0.527421 -18.675429 -56.059420 -18.764119 -13.302929 -96.297068 37.458523 125.669388 -8.968468 13.719617 20.432383 0.000000 0.000000 0.000000 
-4.173760 27.063862 -52.714676 0.000000 0.000000 0.000000 24.804573 -67.837644 23.982995 -53.170902 -22.194570 26.087817 43.369130 -19.297842 -0.189004 24.086777 -2.055682 -30.259265 -16.652493 0.728998 -7.186647 0.000000 0.000000 0.000000 24.698750 -65.538179 23.223364 -37.068588 -1.966897 -30.388970 53.665831 14.460303 2.016973 -19.715954 -10.759347 24.286804 -1.169227 10.439122 0.418499 0.000000 0.000000 0.000000 18.191440 -56.045633 16.085321 1.419100 12.622103 -0.829588 3.567547 12.985822 2.766691 0.125427 -1.726107 0.506119 0.000000 0.000000 0.000000 8.360556 16.162534 3.100868 -10.820568 27.427157 1.835223 -45.770074 -25.736783 -77.705081 0.000000 0.000000 0.000000 7.880315 11.523350 5.664517 -1.106131 -11.320899 4.723232 -9.781562 0.988347 0.559266 -49.730450 -7.597216 -64.357061 154.501543 -69.322021 156.252913 0.000000 0.000000 0.000000 1.594888 10.221185 6.381100 -11.755271 -0.648433 -18.160071 -56.144773 -18.795753 -14.333289 -95.505989 36.229823 125.367371 -10.463367 16.985207 21.515830 0.000000 0.000000 0.000000 
-3.327808 27.226440 -54.354973 0.000000 0.000000 0.000000 23.458263 -66.786396 21.724019 -57.127538 -20.925265 25.027536 46.189349 -17.754763 0.928144 24.546655 -3.075565 -29.150663 -19.849532 0.577221 -6.259237 0.000000 0.000000 0.000000 23.781132 -64.665984 21.231662 -37.354346 -2.173078 -27.399048 54.339066 14.363177 2.215074 -19.528733 -8.620794 21.091851 -2.720650 10.289994 2.598323 0.000000 0.000000 0.000000 19.037330 -56.302967 15.474864 2.175644 12.675573 -0.659747 3.811164 12.515215 2.666266 0.162007 -1.623462 0.511028 0.000000 0.000000 0.000000 8.207367 15.618800 3.223398 -13.904583 26.922031 3.521335 -45.880710 -27.432767 -78.040355 0.000000 0.000000 0.000000 7.553347 11.082317 5.752983 -0.874936 -10.735541 5.912375 -10.280565 1.520800 -0.443019 -49.871815 -6.773037 -65.055045 157.153801 -66.941052 160.204300 0.000000 0.000000 0.000000 1.101610 9.550501 6.298921 -12.031702 -1.693697 -17.703744 -56.372423 -18.830903 -14.404331 -94.827676 35.748425 125.027924 -12.091335 19.946142 22.841964 0.000000 0.000000 0.000000 
-2.541180 27.231298 -55.370377 0.000000 0.000000 0.000000 21.061209 -64.428082 18.349013 -61.470220 -20.140285 23.442398 50.106602 -16.504980 2.552655 23.937026 -4.231917 -28.538953 -22.313448 0.736414 -6.333904 0.000000 0.000000 0.000000 22.121513 -63.995854 18.820286 -38.178080 -2.224027 -25.497552 53.905916 14.379604 2.310022 -17.890408 -6.858547 19.747957 -3.276817 9.967683 3.235389 0.000000 0.000000 0.000000 19.540592 -56.449799 14.711270 2.621075 12.929270 -0.238847 4.125328 12.120088 2.494969 0.163505 -1.535213 0.457976 0.000000 0.000000 0.000000 8.128655 15.131533 3.277809 -16.638486 26.349306 5.448407 -46.491008 -29.316125 -78.363286 0.000000 0.000000 0.000000 7.221776 10.673491 5.642179 -0.744360 -9.735101 7.247191 -10.874272 2.700376 -1.469969 -50.500062 -6.043476 -65.934534 158.521109 -65.385599 162.998448 0.000000 0.000000 0.000000 0.727541 8.993040 6.195242 -12.315782 -2.742760 -17.429844 -56.540822 -19.089228 -13.511938 -94.306136 36.113833 124.971370 -13.583900 22.075503 24.181071 0.000000 0.000000 0.000000 
